<mxfile host="app.diagrams.net" modified="2023-11-07T11:20:21.980Z" agent="Mozilla/5.0 (Windows NT 10.0; Win64; x64) AppleWebKit/537.36 (KHTML, like Gecko) Chrome/119.0.0.0 Safari/537.36" version="22.0.8" etag="XKI9axnaWmtaFbZO51TI" type="github">
  <diagram name="Seite-1" id="0UvVFnrXY8BTUyeojDEj">
    <mxGraphModel>
      <root>
        <mxCell id="0" />
        <mxCell id="1" parent="0" />
      </root>
    </mxGraphModel>
  </diagram>
</mxfile>
